<svg id="clipboard" xmlns="http://www.w3.org/2000/svg" width="86.208" height="86.208" viewBox="0 0 86.208 86.208">
  <path id="Path_32" data-name="Path 32" d="M59.605,9.092H50.032A7.387,7.387,0,0,0,44.62,6.735H42.486A8.434,8.434,0,0,0,34.236,0h-.449a8.433,8.433,0,0,0-8.25,6.735H23.4a7.387,7.387,0,0,0-5.412,2.357H8.419A8.428,8.428,0,0,0,0,17.511V77.79a8.428,8.428,0,0,0,8.419,8.419H59.605a8.428,8.428,0,0,0,8.419-8.419V55.227a1.684,1.684,0,1,0-3.368,0V77.79a5.057,5.057,0,0,1-5.051,5.051H8.419A5.057,5.057,0,0,1,3.368,77.79V17.511A5.057,5.057,0,0,1,8.419,12.46h7.772a7.4,7.4,0,0,0-.2,1.684v3.031a1.684,1.684,0,0,0,1.684,1.684H50.344a1.684,1.684,0,0,0,1.684-1.684V14.144a7.4,7.4,0,0,0-.2-1.684h7.772a5.057,5.057,0,0,1,5.051,5.051V40.073a1.684,1.684,0,1,0,3.368,0V17.511A8.428,8.428,0,0,0,59.605,9.092Zm-10.944,6.4h-29.3V14.144A4.045,4.045,0,0,1,23.4,10.1h3.648a1.684,1.684,0,0,0,1.684-1.684,5.057,5.057,0,0,1,5.051-5.051h.449a5.057,5.057,0,0,1,5.051,5.051A1.684,1.684,0,0,0,40.971,10.1H44.62a4.045,4.045,0,0,1,4.041,4.041Zm0,0" fill="#fff"/>
  <path id="Path_33" data-name="Path 33" d="M435.072,53.445A7.08,7.08,0,0,0,428,60.517v56.267a1.676,1.676,0,0,0,.145.68h0l5.388,12.187a1.684,1.684,0,0,0,3.08,0L442,117.465h0a1.676,1.676,0,0,0,.144-.681V60.517A7.079,7.079,0,0,0,435.072,53.445Zm-3.7,12.366h7.409V115.1h-7.409Zm0-5.295a3.7,3.7,0,1,1,7.409,0v1.927h-7.409Zm3.7,64.29-2.8-6.339h5.605Zm0,0" transform="translate(-355.935 -44.446)" fill="#fff"/>
  <path id="Path_34" data-name="Path 34" d="M70.144,151.684A1.684,1.684,0,0,0,68.46,150H57.684A1.684,1.684,0,0,0,56,151.684V162.46a1.684,1.684,0,0,0,1.684,1.684H68.46a1.684,1.684,0,0,0,1.684-1.684Zm-3.368,9.092H59.368v-7.409h7.409Zm0,0" transform="translate(-46.571 -124.744)" fill="#fff"/>
  <path id="Path_35" data-name="Path 35" d="M70.144,263.684A1.684,1.684,0,0,0,68.46,262H57.684A1.684,1.684,0,0,0,56,263.684V274.46a1.684,1.684,0,0,0,1.684,1.684H68.46a1.684,1.684,0,0,0,1.684-1.684Zm-3.368,9.092H59.368v-7.409h7.409Zm0,0" transform="translate(-46.571 -217.886)" fill="#fff"/>
  <path id="Path_36" data-name="Path 36" d="M68.46,374H57.684A1.684,1.684,0,0,0,56,375.684V386.46a1.684,1.684,0,0,0,1.684,1.684H68.46a1.684,1.684,0,0,0,1.684-1.684V375.684A1.684,1.684,0,0,0,68.46,374Zm-1.684,10.776H59.368v-7.409h7.409Zm0,0" transform="translate(-46.571 -311.027)" fill="#fff"/>
  <path id="Path_37" data-name="Path 37" d="M197.456,150H170.684a1.684,1.684,0,1,0,0,3.368h26.772a1.684,1.684,0,1,0,0-3.368Zm0,0" transform="translate(-140.544 -124.744)" fill="#fff"/>
  <path id="Path_38" data-name="Path 38" d="M170.684,201.368h14.144a1.684,1.684,0,0,0,0-3.368H170.684a1.684,1.684,0,1,0,0,3.368Zm0,0" transform="translate(-140.544 -164.662)" fill="#fff"/>
  <path id="Path_39" data-name="Path 39" d="M197.456,262H170.684a1.684,1.684,0,1,0,0,3.368h26.772a1.684,1.684,0,1,0,0-3.368Zm0,0" transform="translate(-140.544 -217.886)" fill="#fff"/>
  <path id="Path_40" data-name="Path 40" d="M170.684,313.368h14.144a1.684,1.684,0,0,0,0-3.368H170.684a1.684,1.684,0,1,0,0,3.368Zm0,0" transform="translate(-140.544 -257.803)" fill="#fff"/>
  <path id="Path_41" data-name="Path 41" d="M199.139,375.684A1.684,1.684,0,0,0,197.456,374H170.684a1.684,1.684,0,1,0,0,3.368h26.772A1.684,1.684,0,0,0,199.139,375.684Zm0,0" transform="translate(-140.544 -311.027)" fill="#fff"/>
  <path id="Path_42" data-name="Path 42" d="M170.684,422a1.684,1.684,0,1,0,0,3.368h14.144a1.684,1.684,0,0,0,0-3.368Zm0,0" transform="translate(-140.544 -350.945)" fill="#fff"/>
  <path id="Path_43" data-name="Path 43" d="M385.684,273a1.684,1.684,0,1,0,1.19.493A1.7,1.7,0,0,0,385.684,273Zm0,0" transform="translate(-319.344 -227.033)" fill="#fff"/>
</svg>
