<svg xmlns="http://www.w3.org/2000/svg" width="60.478" height="88.322" viewBox="0 0 60.478 88.322">
  <g id="Group_22" data-name="Group 22" transform="translate(-748.541 -1269.765)">
    <g id="Group_21" data-name="Group 21">
      <path id="Path_4" data-name="Path 4" d="M806.268,1281.119H793.223v7.452a7.218,7.218,0,0,1-7.211,7.211H771.546a7.218,7.218,0,0,1-7.21-7.211v-7.452H751.291a2.787,2.787,0,0,0-2.75,2.748v71.471a2.787,2.787,0,0,0,2.75,2.748h18.365a4.707,4.707,0,0,1-.108-.983v-12.516a4.677,4.677,0,0,1,4.615-4.615h9.231a4.677,4.677,0,0,1,4.616,4.615V1357.1a4.649,4.649,0,0,1-.108.983h18.367a2.79,2.79,0,0,0,2.75-2.749v-71.471a2.789,2.789,0,0,0-2.751-2.748Zm-4.635,51.917a1.6,1.6,0,0,1-1.173.495h-3.335a1.691,1.691,0,0,1-1.668-1.667v-3.335a1.692,1.692,0,0,1,1.668-1.669h3.335a1.694,1.694,0,0,1,1.669,1.669v3.335A1.6,1.6,0,0,1,801.633,1333.036Zm.5,8.834v3.336a1.692,1.692,0,0,1-1.669,1.667h-3.335a1.691,1.691,0,0,1-1.668-1.667v-3.336a1.691,1.691,0,0,1,1.668-1.667h3.335a1.692,1.692,0,0,1,1.669,1.667Zm-.5-22.176a1.6,1.6,0,0,1-1.173.495h-3.335a1.691,1.691,0,0,1-1.668-1.668v-3.334a1.691,1.691,0,0,1,1.668-1.668h3.335a1.692,1.692,0,0,1,1.669,1.668v3.334A1.6,1.6,0,0,1,801.633,1319.694Zm0-13.342a1.6,1.6,0,0,1-1.173.5h-3.335a1.692,1.692,0,0,1-1.668-1.669v-3.335a1.691,1.691,0,0,1,1.668-1.667h3.335a1.692,1.692,0,0,1,1.669,1.667v3.335A1.6,1.6,0,0,1,801.633,1306.352Zm0-13.342a1.6,1.6,0,0,1-1.173.495h-3.335a1.691,1.691,0,0,1-1.668-1.667V1288.5a1.691,1.691,0,0,1,1.668-1.667h3.335a1.692,1.692,0,0,1,1.669,1.667v3.336A1.6,1.6,0,0,1,801.633,1293.01Zm-19.518,8.834a1.691,1.691,0,0,1,1.667-1.667h3.336a1.691,1.691,0,0,1,1.667,1.667v3.335a1.692,1.692,0,0,1-1.667,1.669h-3.336a1.692,1.692,0,0,1-1.667-1.669Zm0,13.343a1.691,1.691,0,0,1,1.667-1.668h3.336a1.691,1.691,0,0,1,1.667,1.668v3.334a1.691,1.691,0,0,1-1.667,1.668h-3.336a1.691,1.691,0,0,1-1.667-1.668Zm-20.508,17.849a1.6,1.6,0,0,1-1.173.495H757.1a1.692,1.692,0,0,1-1.668-1.667v-3.335a1.694,1.694,0,0,1,1.668-1.669h3.336a1.692,1.692,0,0,1,1.668,1.669v3.335A1.6,1.6,0,0,1,761.607,1333.036Zm.495,8.834v3.336a1.691,1.691,0,0,1-1.668,1.667H757.1a1.692,1.692,0,0,1-1.668-1.667v-3.336a1.692,1.692,0,0,1,1.668-1.667h3.336a1.691,1.691,0,0,1,1.668,1.667Zm-.495-22.176a1.6,1.6,0,0,1-1.173.495H757.1a1.692,1.692,0,0,1-1.668-1.668v-3.334a1.692,1.692,0,0,1,1.668-1.668h3.336a1.691,1.691,0,0,1,1.668,1.668v3.334A1.6,1.6,0,0,1,761.607,1319.694Zm0-13.342a1.6,1.6,0,0,1-1.173.5H757.1a1.694,1.694,0,0,1-1.668-1.669v-3.335a1.692,1.692,0,0,1,1.668-1.667h3.336a1.691,1.691,0,0,1,1.668,1.667v3.335A1.6,1.6,0,0,1,761.607,1306.352Zm0-13.342a1.6,1.6,0,0,1-1.173.495H757.1a1.692,1.692,0,0,1-1.668-1.667V1288.5a1.692,1.692,0,0,1,1.668-1.667h3.336a1.691,1.691,0,0,1,1.668,1.667v3.336A1.6,1.6,0,0,1,761.607,1293.01Zm13.837,38.854a1.691,1.691,0,0,1-1.668,1.667H770.44a1.691,1.691,0,0,1-1.667-1.667v-3.335a1.692,1.692,0,0,1,1.667-1.669h3.336a1.692,1.692,0,0,1,1.668,1.669Zm0-13.343a1.691,1.691,0,0,1-1.668,1.668H770.44a1.691,1.691,0,0,1-1.667-1.668v-3.334a1.691,1.691,0,0,1,1.667-1.668h3.336a1.691,1.691,0,0,1,1.668,1.668Zm0-13.342a1.692,1.692,0,0,1-1.668,1.669H770.44a1.692,1.692,0,0,1-1.667-1.669v-3.335a1.691,1.691,0,0,1,1.667-1.667h3.336a1.691,1.691,0,0,1,1.668,1.667Zm11.674,28.352h-3.335a1.691,1.691,0,0,1-1.667-1.667v-3.335a1.692,1.692,0,0,1,1.667-1.669h3.335a1.692,1.692,0,0,1,1.668,1.669v3.335a1.691,1.691,0,0,1-1.668,1.667Z" fill="#fff"/>
      <path id="Path_5" data-name="Path 5" d="M768.777,1291.884a4.15,4.15,0,0,0,2.77,1.027h14.466a4.155,4.155,0,0,0,2.77-1.027c.1-.083.2-.153.3-.246a4.18,4.18,0,0,0,1.274-3.067v-14.465a4.35,4.35,0,0,0-4.34-4.341H771.547a4.35,4.35,0,0,0-4.341,4.341v14.465a4.176,4.176,0,0,0,1.274,3.066C768.575,1291.731,768.679,1291.8,768.777,1291.884Zm2.287-10.765v-6.532a.977.977,0,0,1,.964-.964h1.929a.977.977,0,0,1,.963.964v4.822h7.715v-4.822a.979.979,0,0,1,.964-.964h1.929a.977.977,0,0,1,.963.964v13.5a.979.979,0,0,1-.963.964H783.6a.98.98,0,0,1-.964-.964v-4.822h-7.713v4.822a.979.979,0,0,1-.964.964H772.03a.979.979,0,0,1-.964-.964v-6.97Z" fill="#fff"/>
    </g>
  </g>
</svg>
