<?xml version="1.0" encoding="UTF-8" standalone="no"?>
<!DOCTYPE svg PUBLIC "-//W3C//DTD SVG 1.1//EN" "http://www.w3.org/Graphics/SVG/1.1/DTD/svg11.dtd">
<svg width="100%" height="100%" viewBox="0 0 796 420" version="1.1" xmlns="http://www.w3.org/2000/svg" xmlns:xlink="http://www.w3.org/1999/xlink" xml:space="preserve" xmlns:serif="http://www.serif.com/" style="fill-rule:evenodd;clip-rule:evenodd;stroke-linejoin:round;stroke-miterlimit:2;">
    <g transform="matrix(4.16667,0,0,4.16667,-1003.08,-720.103)">
        <path d="M308.228,179.053C316.758,179.958 423.458,211.731 431.586,216.754C431.533,216.098 431.404,215.269 431.404,215.269C430.852,214.529 429.453,213.495 428.301,212.733C425.551,210.915 313.643,173.783 304.811,172.846C298.12,172.137 283.227,189.274 287.736,197.827C290.049,190.875 302.801,178.477 308.228,179.053Z" style="fill:rgb(219,115,1);fill-rule:nonzero;"/>
        <path d="M371.19,259.141C371.696,262.297 369.546,265.265 366.39,265.771C363.232,266.276 360.264,264.126 359.759,260.969C359.254,257.813 361.403,254.844 364.561,254.339C367.717,253.833 370.686,255.984 371.19,259.141Z" style="fill:rgb(39,49,65);fill-rule:nonzero;"/>
        <path d="M407.135,212.37L402.484,243.677L404.217,244.301L409.256,212.031C409.256,212.031 407.436,210.347 407.135,212.37Z" style="fill:rgb(88,9,76);fill-rule:nonzero;"/>
        <path d="M380.834,234.995C380.834,234.995 413.512,240.517 415.214,243.689C416.916,246.862 403.604,252.086 398.004,252.26C393.666,252.395 336.704,244.871 336.704,244.871L380.834,234.995Z" style="fill:rgb(219,115,1);fill-rule:nonzero;"/>
        <path d="M380.18,235.667C380.18,235.667 412.857,241.189 414.56,244.362C416.262,247.534 402.95,252.759 397.35,252.933C393.013,253.067 336.049,245.544 336.049,245.544L380.18,235.667Z" style="fill:rgb(140,44,28);fill-rule:nonzero;"/>
        <path d="M365.168,261.759L360.782,245.913L362.884,245.331L365.748,255.68L374.502,238.031L376.455,239L365.168,261.759Z" style="fill:rgb(88,9,76);fill-rule:nonzero;"/>
        <path d="M256.881,249.066C256.495,246.657 244.946,228.219 248.034,226.281C251.122,224.342 264.722,232.083 269.298,234.665C273.874,237.246 274.589,240.382 274.589,240.382L256.881,249.066Z" style="fill:rgb(254,169,0);fill-rule:nonzero;"/>
        <path d="M325.661,217.086C325.661,217.086 335.411,218.287 340.57,217.079C345.729,215.871 345.052,216.307 347.399,215.443C349.746,214.579 358.652,212.344 358.652,212.344L356.377,223.47L333.143,225.213L326.146,222.51L325.661,217.086Z" style="fill:rgb(95,36,59);fill-rule:nonzero;"/>
        <path d="M289.39,199.213C289.39,199.213 348.651,214.108 352.989,214.012C355.15,213.964 370.019,216.97 385.391,219.976C400.865,223.003 416.848,226.029 420.888,225.939C428.939,225.761 432.353,218.514 431.443,215.345C430.534,212.177 315.943,178.149 307.111,177.212C299.792,176.436 281.241,195.03 289.39,199.213Z" style="fill:rgb(186,56,27);fill-rule:nonzero;"/>
        <path d="M352.517,213.976C356.853,213.879 412.361,226.022 420.416,226.022C423.163,226.022 425.127,225.298 426.711,224.284C411.121,215.685 382.428,201.438 360.31,199.018C340.871,196.891 320.932,200.566 308.182,203.875C325.897,208.222 349.82,214.035 352.517,213.976Z" style="fill:rgb(173,47,26);fill-rule:nonzero;"/>
        <path d="M256.952,246.433C256.952,246.433 250.416,252.31 281.504,255.455C312.593,258.599 393.907,240.058 393.907,240.058L390.943,203.751L359.697,208.92C359.697,208.92 350.738,220.889 337.935,221.579C325.131,222.269 325.661,217.086 325.661,217.086C325.661,217.086 262.252,228.593 256.952,246.433Z" style="fill:rgb(254,169,0);fill-rule:nonzero;"/>
        <path d="M393.907,240.058L392.245,219.697C388.104,222.728 381.368,226.561 370.806,230C352.021,236.116 281.925,238.024 263.401,238.426C260.109,240.922 257.794,243.597 256.952,246.433C256.952,246.433 250.416,252.31 281.504,255.455C312.593,258.599 393.907,240.058 393.907,240.058Z" style="fill:rgb(255,87,37);fill-rule:nonzero;"/>
        <path d="M279.817,251.208C266.616,249.902 260.056,248.125 256.893,246.492C256.316,247.11 252.228,252.494 281.504,255.455C312.593,258.599 393.907,240.058 393.907,240.058L393.58,236.059C383.582,238.245 309.422,254.137 279.817,251.208Z" style="fill:rgb(211,66,32);fill-rule:nonzero;"/>
        <path d="M365.026,259.36L349.776,261.293L349.978,263.464L365.229,261.188L365.026,259.36Z" style="fill:rgb(88,9,76);fill-rule:nonzero;"/>
        <path d="M401.467,221.138C402.311,231.159 398.968,239.622 393.999,240.041C389.031,240.459 384.318,232.674 383.475,222.653C382.632,212.632 385.975,204.168 390.943,203.75C395.911,203.332 400.623,211.117 401.467,221.138Z" style="fill:rgb(255,221,87);fill-rule:nonzero;"/>
        <path d="M399.98,221.448C400.604,228.855 398.332,235.093 394.906,235.381C391.48,235.669 388.197,229.899 387.574,222.493C386.95,215.086 389.222,208.849 392.648,208.56C396.074,208.271 399.357,214.042 399.98,221.448Z" style="fill:rgb(132,38,83);fill-rule:nonzero;"/>
        <path d="M327.938,195.665L320.89,228.742L323.021,229.321L330.432,195.996C330.701,194.938 328.338,194.247 327.938,195.665Z" style="fill:rgb(88,9,76);fill-rule:nonzero;"/>
        <path d="M311.947,191.129L304.811,224.503L306.943,225.083L314.354,191.758C314.636,189.958 312.165,189.995 311.947,191.129Z" style="fill:rgb(88,9,76);fill-rule:nonzero;"/>
        <path d="M394.735,221.155C394.735,221.155 379.52,240.342 381.521,244.425C383.672,248.808 388.323,246.421 389.925,240.942C391.229,236.483 395.307,221.726 395.307,221.726L394.735,221.155Z" style="fill:rgb(255,253,115);fill-rule:nonzero;"/>
        <path d="M395.451,219.73C395.451,219.73 399.331,201.219 403.341,199.727C407.35,198.236 409.62,201.271 408.457,204.091C407.294,206.911 396.386,220.508 396.386,220.508L395.451,219.73Z" style="fill:rgb(255,253,115);fill-rule:nonzero;"/>
        <path d="M274.589,240.382C274.589,240.382 256.829,238.509 244.305,239.876C231.78,241.244 256.403,248.046 256.403,248.046L275.325,244.98L274.589,240.382Z" style="fill:rgb(210,60,43);fill-rule:nonzero;"/>
        <path d="M244.305,239.876C240.653,240.275 240.188,241.095 241.213,242.081C242.644,241.742 245.205,241.574 250.105,241.879C262.72,242.664 275.325,244.98 275.325,244.98L274.589,240.382C274.589,240.382 256.829,238.509 244.305,239.876Z" style="fill:rgb(255,134,46);fill-rule:nonzero;"/>
        <path d="M286.18,233.175C286.18,233.175 302.034,234.719 311.09,235.564C318.795,236.283 360.188,235.35 360.188,235.35L360.391,232.295C360.391,232.295 315.024,217.63 305.515,216.896C299.398,216.425 290.431,220.246 286.649,225.083C284.552,227.766 284.935,231.646 286.18,233.175Z" style="fill:rgb(219,115,1);fill-rule:nonzero;"/>
        <path d="M286.18,233.175C286.18,233.175 302.688,239.027 311.744,239.872C320.8,240.716 360.188,235.35 360.188,235.35C360.188,235.35 315.024,222.704 305.515,221.971C296.005,221.237 282.69,228.891 286.18,233.175Z" style="fill:rgb(140,44,28);fill-rule:nonzero;"/>
        <path d="M365.634,226.697C362.059,226.697 359.221,225.378 358.549,223.091C357.597,219.851 361.35,215.896 366.932,214.255C368.572,213.773 370.188,213.544 371.677,213.544C375.253,213.544 378.091,214.863 378.764,217.15C379.715,220.39 375.962,224.346 370.379,225.986C368.738,226.468 367.122,226.697 365.634,226.697Z" style="fill:rgb(254,192,33);fill-rule:nonzero;"/>
        <path d="M407.14,225.579L409.256,212.031C409.256,211.147 407.599,210.794 407.263,211.638L405.271,224.923C405.914,224.87 406.62,225.112 407.14,225.579Z" style="fill:rgb(88,9,76);fill-rule:nonzero;"/>
        <path d="M269.806,238.273C268.32,238.186 267.416,237.827 267.694,237.074C268.688,234.391 281.323,231.035 281.323,231.035C281.323,231.035 284.515,233.681 282.632,235.564C281.556,236.64 276.508,237.856 272.563,238.199C271.603,238.226 270.683,238.25 269.806,238.273Z" style="fill:rgb(254,192,33);fill-rule:nonzero;"/>
        <path d="M270.585,238.294C270.312,238.294 270.051,238.287 269.806,238.273C270.683,238.25 271.603,238.226 272.563,238.199C271.859,238.261 271.19,238.294 270.585,238.294Z" style="fill:rgb(255,132,65);fill-rule:nonzero;"/>
        <path d="M356.978,245.239C356.34,246.504 355.641,247.909 354.86,249.494C352.678,253.928 350.55,258.386 349.261,261.106L342.582,247.662C342.24,247.383 340.387,247.838 340.443,248.289C345.527,258.512 348.114,263.537 348.017,263.745L349.004,264.208C353.743,255.244 357.053,249.149 359.352,245.009C359.352,244.714 357.176,244.898 356.978,245.239Z" style="fill:rgb(88,9,76);fill-rule:nonzero;"/>
        <path d="M356.433,264.495C357.113,268.75 354.217,272.75 349.962,273.431C345.707,274.112 341.706,271.214 341.024,266.96C340.344,262.706 343.241,258.705 347.496,258.024C351.75,257.343 355.752,260.24 356.433,264.495Z" style="fill:rgb(39,49,65);fill-rule:nonzero;"/>
        <path d="M352.998,265.044C353.375,267.402 351.77,269.619 349.412,269.996C347.054,270.374 344.837,268.768 344.46,266.411C344.083,264.053 345.688,261.835 348.046,261.458C350.403,261.082 352.62,262.688 352.998,265.044Z" style="fill:rgb(83,104,138);fill-rule:nonzero;"/>
        <path d="M367.971,260.111C367.971,261.617 366.652,262.836 365.026,262.836C363.4,262.836 362.082,261.617 362.082,260.111C362.082,258.606 363.4,257.386 365.026,257.386C366.652,257.386 367.971,258.606 367.971,260.111Z" style="fill:rgb(88,9,76);fill-rule:nonzero;"/>
        <path d="M397.677,222.184C397.45,224.046 396.205,225.427 394.896,225.268C393.587,225.109 392.709,223.47 392.937,221.607C393.162,219.744 394.407,218.363 395.717,218.522C397.025,218.682 397.903,220.321 397.677,222.184Z" style="fill:rgb(255,77,37);fill-rule:nonzero;"/>
        <path d="M395.511,218.729C395.008,218.729 394.508,218.981 394.082,219.453C393.586,220.002 393.256,220.777 393.152,221.634C393.048,222.49 393.184,223.321 393.532,223.974C393.868,224.601 394.361,224.983 394.923,225.052C395.485,225.12 396.055,224.866 396.53,224.338C397.025,223.789 397.356,223.014 397.46,222.157C397.564,221.301 397.43,220.47 397.08,219.817C396.744,219.19 396.251,218.807 395.69,218.739L395.511,218.729ZM395.104,225.499L394.87,225.484C394.164,225.399 393.553,224.936 393.147,224.179C392.757,223.449 392.604,222.526 392.72,221.581C392.834,220.636 393.203,219.776 393.758,219.161C394.332,218.524 395.036,218.217 395.743,218.306C396.448,218.392 397.06,218.855 397.465,219.611C397.855,220.342 398.008,221.265 397.893,222.21C397.778,223.155 397.409,224.015 396.854,224.63C396.345,225.196 395.73,225.499 395.104,225.499Z" style="fill:rgb(206,36,9);fill-rule:nonzero;"/>
    </g>
    <g id="Artboard1" transform="matrix(1.72081,0,0,0.52067,542.986,-79.9381)">
        <rect x="-315.541" y="153.529" width="462.107" height="805.897" style="fill:none;"/>
    </g>
</svg>
